<svg width="145" height="144" viewBox="0 0 145 144" fill="none" xmlns="http://www.w3.org/2000/svg">
<g clip-path="url(#clip0_3308_1021)">
<path d="M19.8556 41.94C19.2955 41.3834 18.5396 41.0683 17.75 41.0625H3.125C2.33057 41.0664 1.56979 41.3838 1.00803 41.9455C0.446278 42.5073 0.128943 43.2681 0.125 44.0625V79.3125C0.1301 80.1062 0.442611 80.8669 0.996874 81.435C1.27522 81.7137 1.60621 81.9344 1.97059 82.084C2.33496 82.2337 2.72546 82.3095 3.11937 82.3069H20.7444V44.0569C20.7387 43.2617 20.4193 42.5009 19.8556 41.94Z" fill="#00C65E"/>
<path d="M92.7266 65.4375C90.6641 65.4375 88.9766 68.4581 88.9766 72.1875C88.9766 75.9169 90.6641 78.9375 92.7266 78.9375C94.7891 78.9375 96.4766 75.9169 96.4766 72.1875C96.4766 68.4581 94.8003 65.4375 92.7266 65.4375Z" fill="#00C65E"/>
<path d="M61.9844 -0.1875L103.251 41.0625L144.514 -0.1875V141.174C144.509 141.972 144.19 142.735 143.626 143.299C143.062 143.863 142.299 144.182 141.501 144.188H116.515C115.717 144.184 114.954 143.865 114.39 143.3C113.826 142.736 113.509 141.972 113.506 141.174V123.549H103.251V141.174C103.252 141.971 102.936 142.736 102.374 143.301C101.812 143.866 101.048 144.185 100.251 144.188H75.3138C74.5146 144.186 73.7484 143.868 73.1828 143.304C72.6171 142.739 72.298 141.974 72.295 141.174V123.549H61.9825V141.174C61.982 141.971 61.6662 142.735 61.1041 143.3C60.542 143.864 59.7792 144.184 58.9825 144.188H34.045C33.6516 144.191 33.2616 144.114 32.8984 143.963C32.5353 143.811 32.2065 143.588 31.9319 143.306C31.6506 143.029 31.4271 142.698 31.2742 142.334C31.1213 141.97 31.0421 141.579 31.0413 141.184V102.934H23.7288C23.3374 102.938 22.9493 102.863 22.5877 102.713C22.2262 102.563 21.8987 102.342 21.625 102.062C21.3434 101.784 21.1197 101.453 20.9669 101.089C20.8132 100.724 20.7342 100.333 20.7344 99.9375V82.3125H41.3594V64.6875C41.3729 63.8961 41.6933 63.1408 42.253 62.5811C42.8127 62.0214 43.5679 61.701 44.3594 61.6875H61.9844V-0.1875Z" fill="#00C65E"/>
<path d="M129.477 65.4375C127.414 65.4375 125.727 68.4581 125.727 72.1875C125.727 75.9169 127.414 78.9375 129.477 78.9375C131.539 78.9375 133.227 75.9169 133.227 72.1875C133.227 68.4581 131.548 65.4375 129.477 65.4375Z" fill="#00C65E"/>
</g>
<defs>
<clipPath id="clip0_3308_1021">
<rect width="144.75" height="144" fill="white" transform="translate(0.125)"/>
</clipPath>
</defs>
</svg>
