<svg width="536" height="208" viewBox="0 0 536 208" fill="none" xmlns="http://www.w3.org/2000/svg">
<path d="M237.83 1H253.9V100.43H237.83V1Z" fill="#06038D"/>
<path d="M296.57 26.2578C316.68 26.2578 328.45 37.2578 328.45 55.7778V100.428H312.63V87.1278C309.32 96.3978 299.88 102.008 287.49 102.008C271.43 102.008 261.99 94.0078 261.99 80.2978C261.99 67.1178 271.99 58.5778 289.58 57.1178L312.26 55.0478V54.0478C311.4 44.4078 305.89 39.2878 296.57 39.2878C288.35 39.2878 283.08 43.1878 281.57 50.0178H265.54C267.14 35.1578 278.79 26.2578 296.57 26.2578ZM312.39 69.6878V67.5078L291.78 69.4578C283.45 70.0678 278.42 74.2178 278.42 80.0678C278.42 85.9178 282.83 89.2178 290.68 89.2178C302.21 89.1978 311.77 80.6578 312.39 69.6878Z" fill="#06038D"/>
<path d="M367.68 69.4378C348.06 67.1178 338.62 60.4378 338.62 47.7278C338.62 34.1878 349.53 26.2578 368.17 26.2578C387.3 26.2578 398.46 34.6678 400.3 50.2578H383.87C382.52 43.0578 377.49 39.5178 368.42 39.5178C360.2 39.5178 355.3 42.4478 355.3 47.8178C355.3 52.9378 360.3 55.7478 372.22 56.9678C392.45 59.2878 401.77 66.1178 401.77 79.4178C401.77 93.6878 390.86 101.978 371.36 101.978C350.64 101.978 338.62 92.8278 336.66 76.7278H353.14C354.73 84.5378 360.99 88.7278 371.29 88.7278C380.29 88.7278 385.02 85.5478 385.02 79.7278C385.02 73.9078 379.94 71.0278 367.68 69.4378Z" fill="#06038D"/>
<path d="M403.359 52.0013L413.049 42.1113C414.733 44.2465 416.575 46.2521 418.559 48.1113C423.839 34.4513 435.979 26.2812 452.159 26.2812C468.959 26.2812 480.239 35.0613 480.239 48.7213C480.239 62.7213 467.859 70.7213 445.539 70.7213C440.89 70.7748 436.248 70.3661 431.679 69.5013C433.159 81.8213 440.269 88.7813 451.919 88.7813C460.129 88.7813 465.919 85.1213 467.859 79.1413H484.039C481.349 93.2913 469.209 102.071 451.919 102.071C427.919 102.071 415.619 86.3413 415.619 63.4013C410.883 60.3656 406.731 56.5043 403.359 52.0013ZM445.539 57.2413C457.429 57.2413 463.539 54.1913 463.539 48.5813C463.539 43.2113 458.389 39.5813 450.909 39.5813C441.219 39.5813 434.599 45.5812 432.269 55.8112C436.619 56.8223 441.075 57.3025 445.539 57.2413Z" fill="#06038D"/>
<path d="M491.76 27.8359H507.7V41.136C511.63 32.716 520.46 27.8359 531.7 27.8359H535.38V42.506H529.14C514.67 42.506 507.81 50.436 507.81 67.146V100.456H491.74L491.76 27.8359Z" fill="#06038D"/>
<path d="M287.37 160.188C286.37 151.408 279.65 145.548 270.37 145.548C258.6 145.548 250.75 155.308 250.75 169.948C250.75 184.948 258.84 194.718 270.86 194.718C280.06 194.718 286.8 188.978 287.78 180.198H304.14C302.79 196.908 289.92 208.008 270.67 208.008C248.35 208.008 234 193.008 234 170.068C234 147.128 248.35 132.258 270.42 132.258C289.42 132.258 302.42 143.108 303.77 160.188H287.37Z" fill="#06038D"/>
<path d="M340.95 132.258C363.02 132.258 376.51 146.408 376.51 169.828C376.498 172.506 376.294 175.179 375.9 177.828C380.56 183.318 384.61 190.398 388.28 199.178L376.76 205.518C374.869 201.31 372.698 197.234 370.26 193.318C364.13 202.718 353.83 207.958 340.46 207.958C323.17 207.958 311.52 198.958 311.52 185.268C311.52 171.268 323.42 162.698 342.3 162.698C348.599 162.569 354.858 163.733 360.69 166.118C359.59 152.818 352.6 145.498 340.95 145.498C332.61 145.498 326.61 149.498 324.64 155.988H308.58C311.28 141.278 323.14 132.258 340.95 132.258ZM328.32 185.688C328.32 191.178 333.11 194.688 340.83 194.688C350.03 194.688 356.4 189.808 359.22 181.268C354.422 177.868 348.671 176.072 342.79 176.138C333.84 176.168 328.32 179.708 328.32 185.688Z" fill="#06038D"/>
<path d="M395.27 133.837V117.977H411.33V133.837H429.14V147.747H411.36V182.147C411.36 190.687 413.57 193.737 419.95 193.737C422.89 193.737 426.2 193.247 427.79 192.397V205.937C425.46 206.937 420.19 207.937 415.41 207.937C402.17 207.937 395.3 200.737 395.3 187.197V147.797H385.37V133.837H395.27Z" fill="#06038D"/>
<path d="M465.651 175.438C446.031 173.118 436.591 166.438 436.591 153.728C436.591 140.178 447.501 132.258 466.141 132.258C485.271 132.258 496.431 140.668 498.261 156.258H481.831C480.491 149.058 475.461 145.518 466.381 145.518C458.171 145.518 453.261 148.448 453.261 153.818C453.261 158.938 458.261 161.748 470.191 162.968C490.421 165.288 499.741 172.118 499.741 185.408C499.741 199.688 488.821 207.978 469.331 207.978C448.601 207.978 436.591 198.828 434.631 182.728H451.061C452.651 190.538 458.901 194.728 469.201 194.728C478.201 194.728 482.941 191.548 482.941 185.728C482.941 179.908 477.911 177.028 465.651 175.438Z" fill="#06038D"/>
<g clip-path="url(#clip0_2707_15928)">
<mask id="mask0_2707_15928" style="mask-type:luminance" maskUnits="userSpaceOnUse" x="0" y="0" width="208" height="208">
<path d="M208 0H0V208H208V0Z" fill="white"/>
</mask>
<g mask="url(#mask0_2707_15928)">
<path fill-rule="evenodd" clip-rule="evenodd" d="M89.1429 0L148.571 59.4286L208 0V203.678C208 204.824 207.545 205.924 206.734 206.734C205.924 207.545 204.824 208 203.678 208H167.751C166.604 208 165.505 207.545 164.694 206.734C163.884 205.924 163.429 204.824 163.429 203.678V178.286H148.571V203.678C148.571 204.824 148.116 205.924 147.306 206.734C146.495 207.545 145.396 208 144.249 208H108.322C107.176 208 106.076 207.545 105.266 206.734C104.455 205.924 104 204.824 104 203.678V178.286H89.1429V203.678C89.1429 204.824 88.6875 205.924 87.877 206.734C87.0664 207.545 85.9671 208 84.8208 208H48.8935C47.7472 208 46.6479 207.545 45.8373 206.734C45.0268 205.924 44.5714 204.824 44.5714 203.678V148.571H34.0364C32.8901 148.571 31.7907 148.116 30.9802 147.306C30.1696 146.495 29.7143 145.396 29.7143 144.249V118.857H59.4286V93.4649C59.4286 92.3186 59.8839 91.2193 60.6945 90.4088C61.505 89.5982 62.6044 89.1429 63.7506 89.1429H89.1429V0ZM29.7143 118.857V63.7506C29.7143 62.6044 29.2589 61.505 28.4484 60.6945C27.6378 59.8839 26.5385 59.4286 25.3922 59.4286H4.32208C3.17579 59.4286 2.07645 59.8839 1.26591 60.6945C0.455361 61.505 0 62.6044 0 63.7506L0 114.535C0 115.681 0.455361 116.781 1.26591 117.591C2.07645 118.402 3.17579 118.857 4.32208 118.857H29.7143Z" fill="#06038D"/>
</g>
<circle cx="129.118" cy="104.262" r="16.2078" fill="#FCFBF8"/>
<ellipse cx="133.44" cy="104.264" rx="5.4026" ry="9.72468" fill="#06038D"/>
<circle cx="182.063" cy="104.262" r="16.2078" fill="#FCFBF8"/>
<ellipse cx="186.385" cy="104.264" rx="5.4026" ry="9.72468" fill="#06038D"/>
</g>
<defs>
<clipPath id="clip0_2707_15928">
<rect width="208" height="208" fill="white"/>
</clipPath>
</defs>
</svg>
