{
  "asset": {
    "version": "2.0",
    "generator": "THREE.GLTFExporter"
  },
  "scenes": [
    {
      "name": "AuxScene",
      "nodes": [
        12
      ]
    }
  ],
  "scene": 0,
  "nodes": [
    {
      "mesh": 0
    },
    {
      "matrix": [
        1,
        0,
        0,
        0,
        0,
        1,
        0,
        0,
        0,
        0,
        10.01,
        0,
        0,
        0,
        2.0126738652130682,
        1
      ],
      "children": [
        0
      ]
    },
    {
      "children": [
        1
      ]
    },
    {
      "mesh": 1
    },
    {
      "matrix": [
        1,
        0,
        0,
        0,
        0,
        1,
        0,
        0,
        0,
        0,
        0.9999999999999999,
        0,
        0,
        0,
        0,
        1
      ],
      "children": [
        3
      ]
    },
    {
      "matrix": [
        1,
        0,
        0,
        0,
        0,
        1,
        0,
        0,
        0,
        0,
        1,
        0,
        0,
        0,
        -0.1168640139256123,
        1
      ],
      "children": [
        4
      ]
    },
    {
      "mesh": 2
    },
    {
      "matrix": [
        1,
        0,
        0,
        0,
        0,
        1,
        0,
        0,
        0,
        0,
        10.01,
        0,
        0,
        0,
        0.9807174306683001,
        1
      ],
      "children": [
        6
      ]
    },
    {
      "matrix": [
        1,
        0,
        0,
        0,
        0,
        1,
        0,
        0,
        0,
        0,
        1,
        0,
        0,
        0,
        -0.010276921770736625,
        1
      ],
      "children": [
        7
      ]
    },
    {
      "mesh": 3
    },
    {
      "matrix": [
        1,
        0,
        0,
        0,
        0,
        1,
        0,
        0,
        0,
        0,
        3.411328979682872,
        0,
        0,
        0,
        0.9373647378955545,
        1
      ],
      "children": [
        9
      ]
    },
    {
      "matrix": [
        1,
        0,
        0,
        0,
        0,
        1,
        0,
        0,
        0,
        0,
        1,
        0,
        0,
        0,
        -0.028893024037265715,
        1
      ],
      "children": [
        10
      ]
    },
    {
      "matrix": [
        0.05209362825460313,
        0,
        0,
        0,
        0,
        -0.05209362825460313,
        0,
        0,
        0,
        0,
        0.05209362825460313,
        0,
        -3.515408173304974,
        3.507203363264019,
        0,
        1
      ],
      "extras": {
        "svgImageTarget": {
          "width": 512,
          "height": 511,
          "depth": 1,
          "scissor": {
            "x": 0,
            "y": 0,
            "z": 512,
            "w": 511
          },
          "scissorTest": false,
          "viewport": {
            "x": 0,
            "y": 0,
            "z": 512,
            "w": 511
          },
          "texture": {
            "metadata": {
              "version": 4.5,
              "type": "Texture",
              "generator": "Texture.toJSON"
            },
            "uuid": "D7CB620B-38C7-4E60-8919-DD67F007312A",
            "name": "",
            "mapping": 300,
            "repeat": [
              1,
              1
            ],
            "offset": [
              0,
              0
            ],
            "center": [
              0,
              0
            ],
            "rotation": 0,
            "wrap": [
              1001,
              1001
            ],
            "format": 1023,
            "type": 1009,
            "encoding": 3000,
            "minFilter": 1003,
            "magFilter": 1006,
            "anisotropy": 1,
            "flipY": true,
            "premultiplyAlpha": false,
            "unpackAlignment": 4,
            "image": "F575C3F9-586B-4A42-9692-D14D5EB690BD"
          },
          "depthBuffer": false,
          "stencilBuffer": false,
          "depthTexture": null,
          "_listeners": {
            "dispose": [
              null
            ]
          }
        }
      },
      "children": [
        2,
        5,
        8,
        11
      ]
    }
  ],
  "bufferViews": [
    {
      "buffer": 0,
      "byteOffset": 0,
      "byteLength": 17136,
      "target": 34962,
      "byteStride": 12
    },
    {
      "buffer": 0,
      "byteOffset": 17136,
      "byteLength": 11424,
      "target": 34962,
      "byteStride": 8
    },
    {
      "buffer": 0,
      "byteOffset": 28560,
      "byteLength": 17136,
      "target": 34962,
      "byteStride": 12
    },
    {
      "buffer": 0,
      "byteOffset": 45696,
      "byteLength": 205704,
      "target": 34962,
      "byteStride": 12
    },
    {
      "buffer": 0,
      "byteOffset": 251400,
      "byteLength": 137136,
      "target": 34962,
      "byteStride": 8
    },
    {
      "buffer": 0,
      "byteOffset": 388536,
      "byteLength": 205704,
      "target": 34962,
      "byteStride": 12
    },
    {
      "buffer": 0,
      "byteOffset": 594240,
      "byteLength": 17136,
      "target": 34962,
      "byteStride": 12
    },
    {
      "buffer": 0,
      "byteOffset": 611376,
      "byteLength": 11424,
      "target": 34962,
      "byteStride": 8
    },
    {
      "buffer": 0,
      "byteOffset": 622800,
      "byteLength": 17136,
      "target": 34962,
      "byteStride": 12
    },
    {
      "buffer": 0,
      "byteOffset": 639936,
      "byteLength": 31536,
      "target": 34962,
      "byteStride": 12
    },
    {
      "buffer": 0,
      "byteOffset": 671472,
      "byteLength": 21024,
      "target": 34962,
      "byteStride": 8
    },
    {
      "buffer": 0,
      "byteOffset": 692496,
      "byteLength": 31536,
      "target": 34962,
      "byteStride": 12
    }
  ],
  "buffers": [
    {
      "byteLength": 724032,
      "uri": "data:application/octet-stream;base64,"
    }
  ],
  "accessors": [
    {
      "bufferView": 0,
      "componentType": 5126,
      "count": 1428,
      "max": [
        122.01000213623047,
        73.5906982421875,
        1.972772240638733
      ],
      "min": [
        115,
        61,
        0
      ],
      "type": "VEC3"
    },
    {
      "bufferView": 1,
      "componentType": 5126,
      "count": 1428,
      "max": [
        0.9010407328605652,
        0.5438010692596436
      ],
      "min": [
        0.8494833111763,
        0.4514634311199188
      ],
      "type": "VEC2"
    },
    {
      "bufferView": 2,
      "componentType": 5126,
      "count": 1428,
      "max": [
        0.9992929697036743,
        0.9927365183830261,
        1
      ],
      "min": [
        -0.9993010759353638,
        -0.992790937423706,
        -1
      ],
      "type": "VEC3"
    },
    {
      "bufferView": 3,
      "componentType": 5126,
      "count": 17142,
      "max": [
        134.96499633789062,
        134.64999389648438,
        22.433456420898438
      ],
      "min": [
        19.277599334716797,
        0,
        0
      ],
      "type": "VEC3"
    },
    {
      "bufferView": 4,
      "componentType": 5126,
      "count": 17142,
      "max": [
        0.9963225722312927,
        0.9911626577377319
      ],
      "min": [
        0.14546096324920654,
        0.0036669434048235416
      ],
      "type": "VEC2"
    },
    {
      "bufferView": 5,
      "componentType": 5126,
      "count": 17142,
      "max": [
        1,
        1,
        1
      ],
      "min": [
        -1,
        -1,
        -1
      ],
      "type": "VEC3"
    },
    {
      "bufferView": 6,
      "componentType": 5126,
      "count": 1428,
      "max": [
        87.01010131835938,
        73.5906982421875,
        1.9727790355682373
      ],
      "min": [
        80,
        61,
        0
      ],
      "type": "VEC3"
    },
    {
      "bufferView": 7,
      "componentType": 5126,
      "count": 1428,
      "max": [
        0.6436222791671753,
        0.5438010692596436
      ],
      "min": [
        0.5920641422271729,
        0.4514634311199188
      ],
      "type": "VEC2"
    },
    {
      "bufferView": 8,
      "componentType": 5126,
      "count": 1428,
      "max": [
        0.9992929697036743,
        0.992734432220459,
        1
      ],
      "min": [
        -0.9992997646331787,
        -0.9927822351455688,
        -1
      ],
      "type": "VEC3"
    },
    {
      "bufferView": 9,
      "componentType": 5126,
      "count": 2628,
      "max": [
        19.277799606323242,
        76.92720031738281,
        5.5463643074035645
      ],
      "min": [
        0,
        38.460899353027344,
        0
      ],
      "type": "VEC3"
    },
    {
      "bufferView": 10,
      "componentType": 5126,
      "count": 2628,
      "max": [
        0.14546243846416473,
        0.709098219871521
      ],
      "min": [
        0.0036774170584976673,
        0.4269942045211792
      ],
      "type": "VEC2"
    },
    {
      "bufferView": 11,
      "componentType": 5126,
      "count": 2628,
      "max": [
        1,
        1,
        1
      ],
      "min": [
        -1,
        -1,
        -1
      ],
      "type": "VEC3"
    }
  ],
  "materials": [
    {
      "pbrMetallicRoughness": {
        "baseColorFactor": [
          0.9372549019607843,
          0.9372549019607843,
          0.9372549019607843,
          1
        ],
        "metallicFactor": 1,
        "roughnessFactor": 0.1044776119402985
      }
    },
    {
      "pbrMetallicRoughness": {
        "baseColorFactor": [
          0.023529411764705882,
          0.0196078431372549,
          0.043137254901960784,
          1
        ],
        "metallicFactor": 1,
        "roughnessFactor": 0.12686567164179105
      }
    },
    {
      "pbrMetallicRoughness": {
        "baseColorFactor": [
          0.9450980392156862,
          0.9411764705882353,
          0.9411764705882353,
          1
        ],
        "metallicFactor": 1,
        "roughnessFactor": 0.15671641791044777
      }
    },
    {
      "pbrMetallicRoughness": {
        "baseColorFactor": [
          0.023529411764705882,
          0.0196078431372549,
          0.043137254901960784,
          1
        ],
        "metallicFactor": 1,
        "roughnessFactor": 0.12686567164179105
      }
    }
  ],
  "meshes": [
    {
      "primitives": [
        {
          "mode": 4,
          "attributes": {
            "POSITION": 0,
            "TEXCOORD_0": 1,
            "NORMAL": 2
          },
          "extras": {
            "isUVNormalized": true
          },
          "material": 0
        }
      ]
    },
    {
      "primitives": [
        {
          "mode": 4,
          "attributes": {
            "POSITION": 3,
            "TEXCOORD_0": 4,
            "NORMAL": 5
          },
          "extras": {
            "isUVNormalized": true
          },
          "material": 1
        }
      ]
    },
    {
      "primitives": [
        {
          "mode": 4,
          "attributes": {
            "POSITION": 6,
            "TEXCOORD_0": 7,
            "NORMAL": 8
          },
          "extras": {
            "isUVNormalized": true
          },
          "material": 2
        }
      ]
    },
    {
      "primitives": [
        {
          "mode": 4,
          "attributes": {
            "POSITION": 9,
            "TEXCOORD_0": 10,
            "NORMAL": 11
          },
          "extras": {
            "isUVNormalized": true
          },
          "material": 3
        }
      ]
    }
  ]
}