{
  "asset": {
    "version": "2.0",
    "generator": "THREE.GLTFExporter"
  },
  "scenes": [
    {
      "name": "AuxScene",
      "nodes": [
        6
      ]
    }
  ],
  "scene": 0,
  "nodes": [
    {
      "mesh": 0
    },
    {
      "matrix": [
        1,
        0,
        0,
        0,
        0,
        1,
        0,
        0,
        0,
        0,
        3.485718422811317,
        0,
        0,
        0,
        0,
        1
      ],
      "children": [
        0
      ]
    },
    {
      "children": [
        1
      ]
    },
    {
      "mesh": 1
    },
    {
      "matrix": [
        1,
        0,
        0,
        0,
        0,
        1,
        0,
        0,
        0,
        0,
        0.9999999999999999,
        0,
        0,
        0,
        0,
        1
      ],
      "children": [
        3
      ]
    },
    {
      "matrix": [
        1,
        0,
        0,
        0,
        0,
        1,
        0,
        0,
        0,
        0,
        1,
        0,
        0,
        0,
        -0.11633355616361148,
        1
      ],
      "children": [
        4
      ]
    },
    {
      "matrix": [
        0.028889275993361413,
        0,
        0,
        0,
        0,
        -0.028889275993361413,
        0,
        0,
        0,
        0,
        0.028889275993361413,
        0,
        -5.518170865058861,
        5.508734440668131,
        0,
        1
      ],
      "extras": {
        "svgImageTarget": {
          "width": 512,
          "height": 481,
          "depth": 1,
          "scissor": {
            "x": 0,
            "y": 0,
            "z": 512,
            "w": 481
          },
          "scissorTest": false,
          "viewport": {
            "x": 0,
            "y": 0,
            "z": 512,
            "w": 481
          },
          "texture": {
            "metadata": {
              "version": 4.5,
              "type": "Texture",
              "generator": "Texture.toJSON"
            },
            "uuid": "9868E099-4CFD-4F0A-B8B8-FFBD3601D5FA",
            "name": "",
            "mapping": 300,
            "repeat": [
              1,
              1
            ],
            "offset": [
              0,
              0
            ],
            "center": [
              0,
              0
            ],
            "rotation": 0,
            "wrap": [
              1001,
              1001
            ],
            "format": 1023,
            "type": 1009,
            "encoding": 3000,
            "minFilter": 1003,
            "magFilter": 1006,
            "anisotropy": 1,
            "flipY": true,
            "premultiplyAlpha": false,
            "unpackAlignment": 4,
            "image": "5AC937C7-8B44-4C0F-B8C6-97F5E5BCAB6C"
          },
          "depthBuffer": false,
          "stencilBuffer": false,
          "depthTexture": null,
          "_listeners": {
            "dispose": [
              null
            ]
          }
        }
      },
      "children": [
        2,
        5
      ]
    }
  ],
  "bufferViews": [
    {
      "buffer": 0,
      "byteOffset": 0,
      "byteLength": 31536,
      "target": 34962,
      "byteStride": 12
    },
    {
      "buffer": 0,
      "byteOffset": 31536,
      "byteLength": 21024,
      "target": 34962,
      "byteStride": 8
    },
    {
      "buffer": 0,
      "byteOffset": 52560,
      "byteLength": 31536,
      "target": 34962,
      "byteStride": 12
    },
    {
      "buffer": 0,
      "byteOffset": 84096,
      "byteLength": 93096,
      "target": 34962,
      "byteStride": 12
    },
    {
      "buffer": 0,
      "byteOffset": 177192,
      "byteLength": 62064,
      "target": 34962,
      "byteStride": 8
    },
    {
      "buffer": 0,
      "byteOffset": 239256,
      "byteLength": 93096,
      "target": 34962,
      "byteStride": 12
    }
  ],
  "buffers": [
    {
      "byteLength": 332352,
      "uri": "data:application/octet-stream;base64,"
    }
  ],
  "accessors": [
    {
      "bufferView": 0,
      "componentType": 5126,
      "count": 2628,
      "max": [
        104.1719970703125,
        208.03799438476562,
        9.87283706665039
      ],
      "min": [
        69.4541015625,
        138.59300231933594,
        0
      ],
      "type": "VEC3"
    },
    {
      "bufferView": 1,
      "componentType": 5126,
      "count": 2628,
      "max": [
        0.14426830410957336,
        0.7113496661186218
      ],
      "min": [
        0.0020482304971665144,
        0.42766687273979187
      ],
      "type": "VEC2"
    },
    {
      "bufferView": 2,
      "componentType": 5126,
      "count": 2628,
      "max": [
        1,
        1,
        1
      ],
      "min": [
        -1,
        -1,
        -1
      ],
      "type": "VEC3"
    },
    {
      "bufferView": 3,
      "componentType": 5126,
      "count": 7758,
      "max": [
        312.5679931640625,
        312.2300109863281,
        40.268768310546875
      ],
      "min": [
        104.15299987792969,
        69.13880157470703,
        0
      ],
      "type": "VEC3"
    },
    {
      "bufferView": 4,
      "componentType": 5126,
      "count": 7758,
      "max": [
        0.9979517459869385,
        0.9950700998306274
      ],
      "min": [
        0.1441904753446579,
        0.00204245513305068
      ],
      "type": "VEC2"
    },
    {
      "bufferView": 5,
      "componentType": 5126,
      "count": 7758,
      "max": [
        1,
        1,
        1
      ],
      "min": [
        -1,
        -1,
        -1
      ],
      "type": "VEC3"
    }
  ],
  "materials": [
    {
      "pbrMetallicRoughness": {
        "baseColorFactor": [
          0.023529411764705882,
          0.0196078431372549,
          0.043137254901960784,
          1
        ],
        "metallicFactor": 0,
        "roughnessFactor": 1
      }
    },
    {
      "pbrMetallicRoughness": {
        "baseColorFactor": [
          0.023529411764705882,
          0.0196078431372549,
          0.043137254901960784,
          1
        ],
        "metallicFactor": 0,
        "roughnessFactor": 1
      }
    }
  ],
  "meshes": [
    {
      "primitives": [
        {
          "mode": 4,
          "attributes": {
            "POSITION": 0,
            "TEXCOORD_0": 1,
            "NORMAL": 2
          },
          "extras": {
            "isUVNormalized": true
          },
          "material": 0
        }
      ]
    },
    {
      "primitives": [
        {
          "mode": 4,
          "attributes": {
            "POSITION": 3,
            "TEXCOORD_0": 4,
            "NORMAL": 5
          },
          "extras": {
            "isUVNormalized": true
          },
          "material": 1
        }
      ]
    }
  ]
}