<svg width="495" height="193" viewBox="0 0 495 193" fill="none" xmlns="http://www.w3.org/2000/svg">
<g clip-path="url(#clip0_2963_20749)">
<path d="M232.608 0.285156H219.828V96.2502H232.608V0.285156Z" fill="#06050B"/>
<path d="M289.882 96.2502H302.427V52.4477C302.427 35.1377 291.302 24.6602 272.842 24.6602C256.512 24.6602 245.507 33.1377 243.967 46.7952H256.749C258.289 39.3777 264.207 35.1376 272.727 35.1376C282.784 35.1376 289.057 41.0252 289.649 51.3876V53.0377L267.164 54.9202C250.242 56.3327 240.414 64.4576 240.414 77.0576C240.414 90.1276 249.644 97.7802 264.914 97.7802C277.102 97.7802 286.214 92.1277 289.882 82.8277V96.2502ZM289.647 66.5777C289.054 78.7052 279.824 87.5377 267.279 87.5377C258.642 87.5377 253.552 83.6501 253.552 77.0576C253.552 70.2276 259.232 65.4002 268.937 64.8077L289.647 62.9252V66.5777Z" fill="#06050B"/>
<path d="M342.545 87.0651C331.657 87.0651 325.385 82.7101 323.492 74.3501H310.357C312.607 89.1851 323.492 97.7801 342.662 97.7801C360.65 97.7801 370.71 90.1276 370.71 76.5851C370.71 63.9876 362.07 57.5101 343.137 55.2726C330.83 53.7426 325.86 50.5626 325.86 44.9126C325.86 38.7901 330.947 35.2576 339.94 35.2576C349.29 35.2576 354.852 39.3776 356.155 46.9126H369.29C367.515 32.4301 357.22 24.6626 339.822 24.6626C322.662 24.6626 312.487 32.0801 312.487 44.9126C312.487 56.6876 321.125 62.8101 339.467 65.2826C352.13 66.8126 357.337 70.2276 357.337 76.8226C357.337 83.5326 352.13 87.0651 342.545 87.0651Z" fill="#06050B"/>
<path d="M384.082 59.5126V61.8677C384.082 83.8877 397.217 97.7802 418.162 97.7802C434.02 97.7802 445.382 89.7802 447.985 76.4677H435.085C432.835 83.2977 426.92 87.0652 418.162 87.0652C405.5 87.0652 397.81 79.0652 396.862 64.6926C401.362 65.7527 406.33 66.2252 411.892 66.2252C432.955 66.2252 444.435 58.8052 444.435 45.8552C444.435 33.1377 433.665 24.6602 418.162 24.6602C402.66 24.6602 391.062 33.2552 386.33 47.1602C384.33 45.3927 382.542 43.3902 380.65 40.9102L372.84 48.6827C376.035 53.1552 379.702 56.8051 384.082 59.5126ZM417.332 35.2626C425.262 35.2626 431.06 39.7352 431.06 45.7402C431.06 52.2177 424.432 55.5152 411.89 55.5152C406.327 55.5152 401.712 54.9251 397.452 53.6301C399.702 42.2027 406.92 35.2502 417.335 35.2502L417.332 35.2626Z" fill="#06050B"/>
<path d="M491.179 26.1899C480.179 26.1899 472.009 31.0174 468.221 39.6124V26.1899H455.559V96.2499H468.341V61.7499C468.341 45.7349 475.321 37.8474 489.169 37.8474H494.966V26.1899H491.179Z" fill="#06050B"/>
<path d="M250.251 182.065C237.471 182.065 229.186 171.815 229.186 156.042C229.186 140.382 237.233 130.257 249.896 130.257C259.836 130.257 266.936 136.732 267.896 146.152H281.001C279.698 130.02 267.393 119.652 250.001 119.652C229.173 119.652 215.801 134.017 215.801 156.152C215.801 178.287 229.301 192.772 250.238 192.772C268.238 192.772 280.061 182.412 281.361 166.397H268.226C267.281 175.942 260.298 182.065 250.251 182.065Z" fill="#06050B"/>
<path d="M351.181 155.925C351.181 133.318 338.401 119.66 317.931 119.66C301.481 119.66 290.239 128.138 287.754 141.795H300.534C302.666 134.73 309.056 130.258 317.931 130.258C330.474 130.258 337.931 138.853 338.521 154.043C332.959 151.215 326.689 149.793 319.351 149.793C301.836 149.793 290.601 157.793 290.601 171.223C290.601 184.175 301.251 192.77 317.584 192.77C330.601 192.77 340.659 187.12 346.221 177.228C348.699 181.446 350.836 185.856 352.611 190.415L361.961 185.353C358.646 176.639 354.86 169.574 350.601 164.158C350.983 161.43 351.177 158.679 351.181 155.925ZM317.811 182.065C309.289 182.065 303.964 178.065 303.964 171.585C303.964 164.64 309.999 160.4 319.821 160.4C326.449 160.4 332.246 162.4 337.336 166.523C334.614 176.533 327.869 182.065 317.811 182.065Z" fill="#06050B"/>
<path d="M381.598 105.765H368.818V120.313H359.113V131.38H368.818V173.588C368.818 186.188 374.733 192.663 386.923 192.663C390.946 192.663 395.798 191.72 397.923 190.78V179.948C396.148 180.888 393.071 181.36 390.231 181.36C383.841 181.36 381.593 178.18 381.593 169.468V131.38H399.108V120.313H381.593L381.598 105.765Z" fill="#06050B"/>
<path d="M436.626 150.273C424.318 148.743 419.348 145.563 419.348 139.913C419.348 133.79 424.436 130.258 433.428 130.258C442.778 130.258 448.341 134.378 449.643 141.913H462.778C461.003 127.43 450.708 119.663 433.311 119.663C416.151 119.663 405.976 127.08 405.976 139.913C405.976 151.688 414.613 157.81 432.956 160.283C445.618 161.813 450.826 165.228 450.826 171.823C450.826 178.533 445.618 182.073 436.033 182.073C425.146 182.073 418.873 177.718 416.981 169.358H403.846C406.096 184.193 416.981 192.788 436.151 192.788C454.151 192.788 464.198 185.135 464.198 171.593C464.198 159 455.558 152.5 436.626 150.273Z" fill="#06050B"/>
<path d="M26.325 56.1624C25.5751 55.4132 24.56 54.9901 23.5 54.9849H4C2.94035 54.9888 1.92523 55.4115 1.17594 56.1608C0.426647 56.9101 0.0039515 57.9252 0 58.9849V105.985C0.00679965 107.043 0.423481 108.057 1.1625 108.815C1.53451 109.187 1.97705 109.482 2.46424 109.682C2.95144 109.881 3.47352 109.982 4 109.977H27.5V58.9774C27.4936 57.921 27.0715 56.9097 26.325 56.1624Z" fill="#06050B"/>
<path d="M82.5 0V82.48H59C57.9448 82.498 56.9378 82.9252 56.1915 83.6715C55.4452 84.4178 55.018 85.4248 55 86.48V109.98H27.5V133.48C27.5048 134.544 27.9319 135.563 28.6875 136.312C29.0538 136.686 29.4917 136.981 29.975 137.181C30.4583 137.381 30.9771 137.481 31.5 137.475H41.25V188.475C41.2497 189.002 41.3551 189.524 41.56 190.01C41.7638 190.496 42.062 190.937 42.4375 191.307C42.8022 191.685 43.2392 191.985 43.7224 192.19C44.2056 192.395 44.7251 192.5 45.25 192.5H78.5C79.5627 192.495 80.5801 192.069 81.3297 191.316C82.0792 190.562 82.5 189.543 82.5 188.48V164.98H96.25V188.48C96.2497 189.007 96.3551 189.529 96.56 190.015C96.978 190.992 97.7559 191.771 98.7325 192.19C99.2129 192.393 99.7287 192.498 100.25 192.5H133.5C134.563 192.495 135.58 192.069 136.33 191.316C137.079 190.562 137.5 189.543 137.5 188.48V164.98H151.173V188.48C151.183 189.273 151.423 190.045 151.864 190.704C152.305 191.363 152.928 191.879 153.658 192.19C154.143 192.395 154.665 192.5 155.193 192.5H188.5C189.296 192.491 190.072 192.25 190.733 191.806C191.393 191.362 191.909 190.734 192.217 190C192.422 189.514 192.528 188.992 192.53 188.465V0L137.5 54.985L82.5 0Z" fill="#06050B"/>
</g>
<defs>
<clipPath id="clip0_2963_20749">
<rect width="495" height="193" fill="white"/>
</clipPath>
</defs>
</svg>
